<svg width="full" height="52" viewBox="0 0 644 52" fill="none" xmlns="http://www.w3.org/2000/svg">
<g filter="url(#filter0_bii_5_3374)">
<path fill-rule="evenodd" clip-rule="evenodd" d="M9.99999 0C4.47714 0 0 4.47715 0 10V52H800V10C800 4.47715 795.523 0 790 0H9.99999Z" fill="#202124" fill-opacity="0.9"/>
</g>
<path d="M689.495 27.3969C689.91 27.3969 690.262 27.056 690.262 26.6513V18.3442L690.198 17.0661L690.646 17.556L691.819 18.8234C691.957 18.9725 692.149 19.0471 692.33 19.0471C692.736 19.0471 693.034 18.7702 693.034 18.3868C693.034 18.1738 692.949 18.0247 692.8 17.8862L690.049 15.2556C689.857 15.0639 689.697 15 689.495 15C689.303 15 689.143 15.0639 688.94 15.2556L686.19 17.8862C686.051 18.0247 685.966 18.1738 685.966 18.3868C685.966 18.7702 686.254 19.0471 686.659 19.0471C686.84 19.0471 687.043 18.9725 687.181 18.8234L688.354 17.556L688.802 17.0661L688.738 18.3442V26.6513C688.738 27.056 689.09 27.3969 689.495 27.3969ZM684.719 34H694.281C696.104 34 697 33.1054 697 31.3161V23.1261C697 21.3369 696.104 20.4423 694.281 20.4423H691.989V21.9865H694.26C695.017 21.9865 695.465 22.4019 695.465 23.2007V31.2416C695.465 32.051 695.017 32.4557 694.26 32.4557H684.74C683.972 32.4557 683.535 32.051 683.535 31.2416V23.2007C683.535 22.4019 683.972 21.9865 684.74 21.9865H687.011V20.4423H684.719C682.906 20.4423 682 21.3369 682 23.1261V31.3161C682 33.1054 682.906 34 684.719 34Z" fill="#767676"/>
<path d="M730.017 32.6401C730.489 32.6401 730.875 32.2646 730.875 31.7925V26.3745H736.164C736.626 26.3745 737.023 25.9775 737.023 25.5055C737.023 25.0334 736.626 24.6364 736.164 24.6364H730.875V19.2077C730.875 18.7356 730.489 18.3601 730.017 18.3601C729.545 18.3601 729.148 18.7356 729.148 19.2077V24.6364H723.869C723.397 24.6364 723 25.0334 723 25.5055C723 25.9775 723.397 26.3745 723.869 26.3745H729.148V31.7925C729.148 32.2646 729.545 32.6401 730.017 32.6401Z" fill="#767676"/>
<path d="M764.678 30.2898H765.979V31.5914C765.979 33.3407 766.854 34.205 768.635 34.205H776.819C778.589 34.205 779.474 33.3407 779.474 31.5914V23.3237C779.474 21.5744 778.589 20.7102 776.819 20.7102H775.517V19.4086C775.517 17.6592 774.632 16.795 772.862 16.795H764.678C762.897 16.795 762.023 17.6592 762.023 19.4086V27.6762C762.023 29.4256 762.897 30.2898 764.678 30.2898ZM764.699 28.7904C763.949 28.7904 763.522 28.3843 763.522 27.5929V19.4919C763.522 18.7005 763.949 18.2944 764.699 18.2944H772.841C773.591 18.2944 774.018 18.7005 774.018 19.4919V20.7102H768.635C766.854 20.7102 765.979 21.5744 765.979 23.3237V28.7904H764.699ZM768.655 32.7056C767.906 32.7056 767.479 32.2995 767.479 31.5081V23.407C767.479 22.6157 767.906 22.2096 768.655 22.2096H776.798C777.548 22.2096 777.975 22.6157 777.975 23.407V31.5081C777.975 32.2995 777.548 32.7056 776.798 32.7056H768.655Z" fill="#767676"/>
<path d="M231 34.5C231.116 34.5 231.328 34.4574 231.561 34.3298C236.316 31.7128 238 30.5213 238 27.3723V20.9681C238 20.0958 237.587 19.8298 236.93 19.5426C236.073 19.1702 232.567 17.9255 231.71 17.6277C231.487 17.5532 231.244 17.5 231 17.5C230.756 17.5 230.502 17.5745 230.29 17.6277C229.433 17.8404 225.927 19.1809 225.07 19.5426C224.413 19.8191 224 20.0958 224 20.9681V27.3723C224 30.5213 225.684 31.7021 230.439 34.3298C230.672 34.4574 230.884 34.5 231 34.5ZM231.286 19.0957C232.631 19.6383 234.887 20.4362 236.274 20.9043C236.454 20.9681 236.486 21.0638 236.486 21.2553V27C236.486 29.5851 235.352 30.266 231.53 32.5638C231.265 32.7234 231.138 32.7553 231.011 32.7553V19.0426C231.085 19.0426 231.18 19.0532 231.286 19.0957Z" fill="#737373"/>
<rect x="256" y="12" width="360" height="28" rx="5" fill="#474A4D"/>
<path d="M603.994 21L606.33 23.3362L603.994 25.6724M609 27.6193C609 30.1998 606.908 32.2917 604.328 32.2917C601.747 32.2917 599.655 30.1998 599.655 27.6193C599.655 25.0388 601.747 22.9468 604.328 22.9468C604.874 22.9468 605.496 22.9468 606.274 23.3362" stroke="#737373" stroke-linecap="round" stroke-linejoin="round"/>
<path d="M349.318 33.001H355.631C356.515 33.001 356.949 32.5674 356.949 31.6083V26.7543C356.949 25.9037 356.599 25.4616 355.898 25.3782V23.7269C355.898 21.1665 354.18 19.9989 352.479 19.9989C350.769 19.9989 349.059 21.1665 349.059 23.7269V25.4033C348.4 25.5284 348 25.962 348 26.7543V31.6083C348 32.5674 348.442 33.001 349.318 33.001ZM350.435 23.5768C350.435 22.0839 351.386 21.3166 352.479 21.3166C353.563 21.3166 354.522 22.0839 354.522 23.5768V25.3615L350.435 25.3699V23.5768Z" fill="#9E9E9E"/>
<path d="M365.553 31.5L363.392 24.4091H364.537L366.07 29.8381H366.143L367.658 24.4091H368.821L370.317 29.8196H370.391L371.923 24.4091H373.068L370.908 31.5H369.837L368.286 26.0526H368.175L366.624 31.5H365.553ZM376.115 31.5L373.955 24.4091H375.099L376.632 29.8381H376.706L378.22 24.4091H379.384L380.879 29.8196H380.953L382.486 24.4091H383.631L381.47 31.5H380.399L378.848 26.0526H378.737L377.186 31.5H376.115ZM386.678 31.5L384.517 24.4091H385.662L387.195 29.8381H387.268L388.783 24.4091H389.946L391.442 29.8196H391.516L393.048 24.4091H394.193L392.033 31.5H390.962L389.411 26.0526H389.3L387.749 31.5H386.678ZM395.463 31.5739C395.235 31.5739 395.04 31.4923 394.876 31.3292C394.713 31.1661 394.632 30.9706 394.632 30.7429C394.632 30.5152 394.713 30.3197 394.876 30.1566C395.04 29.9935 395.235 29.9119 395.463 29.9119C395.69 29.9119 395.886 29.9935 396.049 30.1566C396.212 30.3197 396.294 30.5152 396.294 30.7429C396.294 30.8937 396.255 31.0322 396.178 31.1584C396.104 31.2846 396.004 31.3861 395.878 31.4631C395.755 31.5369 395.617 31.5739 395.463 31.5739ZM399.855 31.5L397.695 24.4091H398.84L400.372 29.8381H400.446L401.96 24.4091H403.124L404.62 29.8196H404.693L406.226 24.4091H407.371L405.21 31.5H404.139L402.588 26.0526H402.477L400.926 31.5H399.855ZM411.543 31.6477C410.86 31.6477 410.27 31.4969 409.775 31.1953C409.283 30.8906 408.902 30.4659 408.635 29.9212C408.37 29.3733 408.238 28.7363 408.238 28.0099C408.238 27.2836 408.37 26.6435 408.635 26.0895C408.902 25.5324 409.275 25.0985 409.752 24.7876C410.232 24.4737 410.792 24.3168 411.432 24.3168C411.802 24.3168 412.166 24.3783 412.526 24.5014C412.886 24.6245 413.214 24.8246 413.51 25.1016C413.805 25.3755 414.041 25.7386 414.216 26.1911C414.391 26.6435 414.479 27.2005 414.479 27.8622V28.3239H409.013V27.3821H413.371C413.371 26.982 413.291 26.625 413.131 26.3111C412.974 25.9972 412.75 25.7494 412.457 25.5678C412.168 25.3862 411.826 25.2955 411.432 25.2955C410.998 25.2955 410.623 25.4032 410.306 25.6186C409.992 25.831 409.75 26.108 409.581 26.4496C409.412 26.7912 409.327 27.1574 409.327 27.5483V28.1761C409.327 28.7116 409.419 29.1656 409.604 29.538C409.792 29.9073 410.052 30.1889 410.384 30.3828C410.717 30.5736 411.103 30.669 411.543 30.669C411.829 30.669 412.088 30.629 412.319 30.549C412.553 30.4659 412.754 30.3428 412.923 30.1797C413.093 30.0135 413.223 29.8073 413.316 29.5611L414.368 29.8565C414.258 30.2135 414.071 30.5275 413.81 30.7983C413.548 31.0661 413.225 31.2753 412.84 31.4261C412.456 31.5739 412.023 31.6477 411.543 31.6477ZM416.284 31.5V22.0455H417.374V25.5355H417.466C417.546 25.4124 417.657 25.2554 417.798 25.0646C417.943 24.8707 418.149 24.6984 418.417 24.5476C418.688 24.3937 419.054 24.3168 419.516 24.3168C420.113 24.3168 420.639 24.466 421.095 24.7646C421.55 25.0631 421.906 25.4863 422.161 26.0341C422.416 26.5819 422.544 27.2282 422.544 27.973C422.544 28.724 422.416 29.3749 422.161 29.9258C421.906 30.4736 421.552 30.8983 421.099 31.1999C420.647 31.4985 420.125 31.6477 419.534 31.6477C419.079 31.6477 418.714 31.5723 418.44 31.4215C418.166 31.2676 417.955 31.0937 417.808 30.8999C417.66 30.7029 417.546 30.5398 417.466 30.4105H417.337V31.5H416.284ZM417.355 27.9545C417.355 28.4901 417.434 28.9625 417.591 29.3718C417.748 29.7781 417.977 30.0966 418.279 30.3274C418.58 30.5552 418.949 30.669 419.386 30.669C419.842 30.669 420.222 30.549 420.527 30.3089C420.834 30.0658 421.065 29.7396 421.219 29.3303C421.376 28.9179 421.455 28.4593 421.455 27.9545C421.455 27.456 421.378 27.0066 421.224 26.6065C421.073 26.2034 420.844 25.8848 420.536 25.6509C420.231 25.4139 419.848 25.2955 419.386 25.2955C418.943 25.2955 418.571 25.4078 418.269 25.6325C417.968 25.854 417.74 26.1649 417.586 26.565C417.432 26.962 417.355 27.4252 417.355 27.9545ZM426.888 31.6477C426.297 31.6477 425.776 31.4985 425.323 31.1999C424.871 30.8983 424.517 30.4736 424.261 29.9258C424.006 29.3749 423.878 28.724 423.878 27.973C423.878 27.2282 424.006 26.5819 424.261 26.0341C424.517 25.4863 424.872 25.0631 425.328 24.7646C425.783 24.466 426.31 24.3168 426.907 24.3168C427.368 24.3168 427.733 24.3937 428.001 24.5476C428.272 24.6984 428.478 24.8707 428.619 25.0646C428.764 25.2554 428.876 25.4124 428.956 25.5355H429.049V22.0455H430.138V31.5H429.086V30.4105H428.956C428.876 30.5398 428.763 30.7029 428.615 30.8999C428.467 31.0937 428.256 31.2676 427.982 31.4215C427.708 31.5723 427.344 31.6477 426.888 31.6477ZM427.036 30.669C427.473 30.669 427.842 30.5552 428.144 30.3274C428.446 30.0966 428.675 29.7781 428.832 29.3718C428.989 28.9625 429.067 28.4901 429.067 27.9545C429.067 27.4252 428.99 26.962 428.836 26.565C428.683 26.1649 428.455 25.854 428.153 25.6325C427.852 25.4078 427.479 25.2955 427.036 25.2955C426.574 25.2955 426.19 25.4139 425.882 25.6509C425.577 25.8848 425.348 26.2034 425.194 26.6065C425.043 27.0066 424.968 27.456 424.968 27.9545C424.968 28.4593 425.045 28.9179 425.199 29.3303C425.356 29.7396 425.586 30.0658 425.891 30.3089C426.199 30.549 426.58 30.669 427.036 30.669ZM435.258 31.6477C434.575 31.6477 433.985 31.4969 433.49 31.1953C432.997 30.8906 432.617 30.4659 432.35 29.9212C432.085 29.3733 431.953 28.7363 431.953 28.0099C431.953 27.2836 432.085 26.6435 432.35 26.0895C432.617 25.5324 432.99 25.0985 433.467 24.7876C433.947 24.4737 434.507 24.3168 435.147 24.3168C435.516 24.3168 435.881 24.3783 436.241 24.5014C436.601 24.6245 436.929 24.8246 437.225 25.1016C437.52 25.3755 437.755 25.7386 437.931 26.1911C438.106 26.6435 438.194 27.2005 438.194 27.8622V28.3239H432.728V27.3821H437.086C437.086 26.982 437.006 26.625 436.846 26.3111C436.689 25.9972 436.464 25.7494 436.172 25.5678C435.883 25.3862 435.541 25.2955 435.147 25.2955C434.713 25.2955 434.338 25.4032 434.021 25.6186C433.707 25.831 433.465 26.108 433.296 26.4496C433.127 26.7912 433.042 27.1574 433.042 27.5483V28.1761C433.042 28.7116 433.134 29.1656 433.319 29.538C433.507 29.9073 433.767 30.1889 434.099 30.3828C434.432 30.5736 434.818 30.669 435.258 30.669C435.544 30.669 435.803 30.629 436.033 30.549C436.267 30.4659 436.469 30.3428 436.638 30.1797C436.808 30.0135 436.938 29.8073 437.031 29.5611L438.083 29.8565C437.972 30.2135 437.786 30.5275 437.525 30.7983C437.263 31.0661 436.94 31.2753 436.555 31.4261C436.17 31.5739 435.738 31.6477 435.258 31.6477ZM445.434 24.4091L442.812 31.5H441.704L439.082 24.4091H440.263L442.221 30.0597H442.295L444.252 24.4091H445.434ZM451.895 25.9972L450.916 26.2741C450.854 26.111 450.764 25.9525 450.643 25.7987C450.527 25.6417 450.366 25.5124 450.163 25.4109C449.96 25.3093 449.7 25.2585 449.383 25.2585C448.949 25.2585 448.588 25.3585 448.298 25.5586C448.012 25.7556 447.869 26.0064 447.869 26.3111C447.869 26.5819 447.967 26.7958 448.164 26.9528C448.361 27.1097 448.669 27.2405 449.088 27.3452L450.14 27.6037C450.774 27.7576 451.247 27.993 451.558 28.31C451.868 28.6239 452.024 29.0286 452.024 29.5241C452.024 29.9304 451.907 30.2936 451.673 30.6136C451.442 30.9337 451.119 31.1861 450.703 31.3707C450.288 31.5554 449.805 31.6477 449.254 31.6477C448.531 31.6477 447.932 31.4908 447.458 31.1768C446.984 30.8629 446.684 30.4044 446.558 29.8011L447.592 29.5426C447.69 29.9242 447.877 30.2105 448.151 30.4013C448.428 30.5921 448.789 30.6875 449.235 30.6875C449.743 30.6875 450.146 30.5798 450.445 30.3643C450.747 30.1458 450.897 29.8842 450.897 29.5795C450.897 29.3333 450.811 29.1271 450.639 28.9609C450.467 28.7917 450.202 28.6655 449.845 28.5824L448.663 28.3054C448.014 28.1515 447.537 27.913 447.232 27.5898C446.93 27.2636 446.779 26.8558 446.779 26.3665C446.779 25.9664 446.892 25.6125 447.116 25.3047C447.344 24.9969 447.654 24.7553 448.044 24.5799C448.438 24.4045 448.885 24.3168 449.383 24.3168C450.085 24.3168 450.636 24.4706 451.036 24.7784C451.439 25.0862 451.725 25.4924 451.895 25.9972ZM455.75 31.6662C455.301 31.6662 454.893 31.5816 454.527 31.4123C454.161 31.2399 453.87 30.9922 453.655 30.669C453.439 30.3428 453.331 29.9489 453.331 29.4872C453.331 29.081 453.411 28.7517 453.571 28.4993C453.732 28.2438 453.945 28.0438 454.213 27.8991C454.481 27.7545 454.776 27.6468 455.1 27.576C455.426 27.5021 455.754 27.4437 456.083 27.4006C456.514 27.3452 456.863 27.3036 457.131 27.2759C457.402 27.2451 457.599 27.1944 457.722 27.1236C457.848 27.0528 457.911 26.9297 457.911 26.7543V26.7173C457.911 26.2618 457.786 25.9079 457.537 25.6555C457.291 25.4032 456.917 25.277 456.415 25.277C455.895 25.277 455.487 25.3909 455.192 25.6186C454.896 25.8464 454.689 26.0895 454.569 26.348L453.535 25.9787C453.719 25.5478 453.965 25.2124 454.273 24.9723C454.584 24.7292 454.923 24.5599 455.289 24.4645C455.658 24.366 456.021 24.3168 456.378 24.3168C456.606 24.3168 456.868 24.3445 457.163 24.3999C457.462 24.4522 457.749 24.5614 458.026 24.7276C458.306 24.8938 458.539 25.1446 458.723 25.4801C458.908 25.8156 459 26.2649 459 26.8281V31.5H457.911V30.5398H457.856C457.782 30.6937 457.659 30.8583 457.486 31.0337C457.314 31.2092 457.085 31.3584 456.798 31.4815C456.512 31.6046 456.163 31.6662 455.75 31.6662ZM455.917 30.6875C456.348 30.6875 456.711 30.6029 457.006 30.4336C457.305 30.2643 457.529 30.0458 457.68 29.7781C457.834 29.5103 457.911 29.2287 457.911 28.9332V27.9361C457.865 27.9915 457.763 28.0423 457.606 28.0884C457.452 28.1315 457.274 28.17 457.071 28.2038C456.871 28.2346 456.675 28.2623 456.484 28.2869C456.297 28.3085 456.144 28.3269 456.027 28.3423C455.744 28.3793 455.48 28.4393 455.233 28.5224C454.99 28.6024 454.793 28.724 454.643 28.8871C454.495 29.0471 454.421 29.2656 454.421 29.5426C454.421 29.9212 454.561 30.2074 454.841 30.4013C455.124 30.5921 455.483 30.6875 455.917 30.6875ZM465.827 34.1591V30.4105H465.735C465.655 30.5398 465.541 30.7029 465.393 30.8999C465.245 31.0937 465.035 31.2676 464.761 31.4215C464.487 31.5723 464.122 31.6477 463.667 31.6477C463.076 31.6477 462.554 31.4985 462.102 31.1999C461.649 30.8983 461.295 30.4736 461.04 29.9258C460.784 29.3749 460.657 28.724 460.657 27.973C460.657 27.2282 460.784 26.5819 461.04 26.0341C461.295 25.4863 461.651 25.0631 462.106 24.7646C462.562 24.466 463.088 24.3168 463.685 24.3168C464.147 24.3168 464.511 24.3937 464.779 24.5476C465.05 24.6984 465.256 24.8707 465.398 25.0646C465.542 25.2554 465.655 25.4124 465.735 25.5355H465.864V24.4091H466.917V34.1591H465.827ZM463.814 30.669C464.251 30.669 464.621 30.5552 464.922 30.3274C465.224 30.0966 465.453 29.7781 465.61 29.3718C465.767 28.9625 465.846 28.4901 465.846 27.9545C465.846 27.4252 465.769 26.962 465.615 26.565C465.461 26.1649 465.233 25.854 464.931 25.6325C464.63 25.4078 464.257 25.2955 463.814 25.2955C463.353 25.2955 462.968 25.4139 462.66 25.6509C462.355 25.8848 462.126 26.2034 461.972 26.6065C461.822 27.0066 461.746 27.456 461.746 27.9545C461.746 28.4593 461.823 28.9179 461.977 29.3303C462.134 29.7396 462.365 30.0658 462.669 30.3089C462.977 30.549 463.359 30.669 463.814 30.669ZM468.911 31.5V24.4091H470V31.5H468.911ZM469.465 23.2273C469.252 23.2273 469.069 23.1549 468.915 23.0103C468.765 22.8656 468.689 22.6918 468.689 22.4886C468.689 22.2855 468.765 22.1116 468.915 21.967C469.069 21.8223 469.252 21.75 469.465 21.75C469.677 21.75 469.859 21.8223 470.01 21.967C470.163 22.1116 470.24 22.2855 470.24 22.4886C470.24 22.6918 470.163 22.8656 470.01 23.0103C469.859 23.1549 469.677 23.2273 469.465 23.2273ZM472.144 31.5V22.0455H473.233V25.5355H473.325C473.405 25.4124 473.516 25.2554 473.658 25.0646C473.802 24.8707 474.009 24.6984 474.276 24.5476C474.547 24.3937 474.913 24.3168 475.375 24.3168C475.972 24.3168 476.498 24.466 476.954 24.7646C477.409 25.0631 477.765 25.4863 478.02 26.0341C478.276 26.5819 478.404 27.2282 478.404 27.973C478.404 28.724 478.276 29.3749 478.02 29.9258C477.765 30.4736 477.411 30.8983 476.959 31.1999C476.506 31.4985 475.984 31.6477 475.394 31.6477C474.938 31.6477 474.573 31.5723 474.299 31.4215C474.026 31.2676 473.815 31.0937 473.667 30.8999C473.519 30.7029 473.405 30.5398 473.325 30.4105H473.196V31.5H472.144ZM473.215 27.9545C473.215 28.4901 473.293 28.9625 473.45 29.3718C473.607 29.7781 473.836 30.0966 474.138 30.3274C474.439 30.5552 474.809 30.669 475.246 30.669C475.701 30.669 476.081 30.549 476.386 30.3089C476.694 30.0658 476.925 29.7396 477.079 29.3303C477.236 28.9179 477.314 28.4593 477.314 27.9545C477.314 27.456 477.237 27.0066 477.083 26.6065C476.932 26.2034 476.703 25.8848 476.395 25.6509C476.091 25.4139 475.707 25.2955 475.246 25.2955C474.803 25.2955 474.43 25.4078 474.129 25.6325C473.827 25.854 473.599 26.1649 473.445 26.565C473.292 26.962 473.215 27.4252 473.215 27.9545ZM480.864 31.5739C480.636 31.5739 480.441 31.4923 480.278 31.3292C480.115 31.1661 480.033 30.9706 480.033 30.7429C480.033 30.5152 480.115 30.3197 480.278 30.1566C480.441 29.9935 480.636 29.9119 480.864 29.9119C481.092 29.9119 481.287 29.9935 481.45 30.1566C481.614 30.3197 481.695 30.5152 481.695 30.7429C481.695 30.8937 481.657 31.0322 481.58 31.1584C481.506 31.2846 481.406 31.3861 481.28 31.4631C481.156 31.5369 481.018 31.5739 480.864 31.5739ZM486.531 31.6477C485.866 31.6477 485.294 31.4908 484.813 31.1768C484.333 30.8629 483.964 30.4305 483.706 29.8796C483.447 29.3287 483.318 28.6993 483.318 27.9915C483.318 27.2713 483.45 26.6358 483.715 26.0849C483.983 25.5309 484.355 25.0985 484.832 24.7876C485.312 24.4737 485.872 24.3168 486.512 24.3168C487.011 24.3168 487.46 24.4091 487.86 24.5938C488.26 24.7784 488.588 25.0369 488.844 25.3693C489.099 25.7017 489.258 26.0895 489.319 26.5327H488.23C488.147 26.2095 487.962 25.9233 487.676 25.674C487.393 25.4216 487.011 25.2955 486.531 25.2955C486.106 25.2955 485.734 25.4062 485.414 25.6278C485.097 25.8464 484.849 26.1557 484.67 26.5558C484.495 26.9528 484.407 27.419 484.407 27.9545C484.407 28.5024 484.493 28.9794 484.666 29.3857C484.841 29.7919 485.087 30.1074 485.404 30.332C485.724 30.5567 486.1 30.669 486.531 30.669C486.814 30.669 487.071 30.6198 487.302 30.5213C487.533 30.4228 487.728 30.2812 487.888 30.0966C488.048 29.9119 488.162 29.6903 488.23 29.4318H489.319C489.258 29.8504 489.105 30.2274 488.862 30.5629C488.622 30.8952 488.304 31.1599 487.907 31.3569C487.513 31.5508 487.054 31.6477 486.531 31.6477ZM493.793 31.6477C493.152 31.6477 492.591 31.4954 492.108 31.1907C491.627 30.886 491.252 30.4598 490.981 29.9119C490.713 29.3641 490.579 28.724 490.579 27.9915C490.579 27.2528 490.713 26.6081 490.981 26.0572C491.252 25.5063 491.627 25.0785 492.108 24.7738C492.591 24.4691 493.152 24.3168 493.793 24.3168C494.433 24.3168 494.993 24.4691 495.473 24.7738C495.956 25.0785 496.332 25.5063 496.599 26.0572C496.87 26.6081 497.006 27.2528 497.006 27.9915C497.006 28.724 496.87 29.3641 496.599 29.9119C496.332 30.4598 495.956 30.886 495.473 31.1907C494.993 31.4954 494.433 31.6477 493.793 31.6477ZM493.793 30.669C494.279 30.669 494.679 30.5444 494.993 30.2951C495.307 30.0458 495.539 29.718 495.69 29.3118C495.841 28.9055 495.916 28.4654 495.916 27.9915C495.916 27.5175 495.841 27.0759 495.69 26.6665C495.539 26.2572 495.307 25.9264 494.993 25.674C494.679 25.4216 494.279 25.2955 493.793 25.2955C493.306 25.2955 492.906 25.4216 492.592 25.674C492.278 25.9264 492.046 26.2572 491.895 26.6665C491.744 27.0759 491.669 27.5175 491.669 27.9915C491.669 28.4654 491.744 28.9055 491.895 29.3118C492.046 29.718 492.278 30.0458 492.592 30.2951C492.906 30.5444 493.306 30.669 493.793 30.669ZM498.669 31.5V24.4091H499.721V25.517H499.814C499.961 25.1385 500.2 24.8446 500.529 24.6353C500.858 24.4229 501.254 24.3168 501.716 24.3168C502.183 24.3168 502.573 24.4229 502.884 24.6353C503.197 24.8446 503.442 25.1385 503.618 25.517H503.691C503.873 25.1508 504.145 24.86 504.509 24.6445C504.872 24.426 505.307 24.3168 505.815 24.3168C506.449 24.3168 506.968 24.5153 507.371 24.9123C507.774 25.3062 507.976 25.9202 507.976 26.7543V31.5H506.886V26.7543C506.886 26.2311 506.743 25.8571 506.457 25.6325C506.17 25.4078 505.833 25.2955 505.446 25.2955C504.947 25.2955 504.561 25.4463 504.287 25.7479C504.013 26.0464 503.876 26.425 503.876 26.8835V31.5H502.768V26.6435C502.768 26.2403 502.637 25.9156 502.376 25.6694C502.114 25.4201 501.777 25.2955 501.365 25.2955C501.082 25.2955 500.817 25.3709 500.571 25.5217C500.328 25.6725 500.131 25.8817 499.98 26.1495C499.832 26.4142 499.758 26.7204 499.758 27.0682V31.5H498.669Z" fill="white"/>
<path d="M101.623 33H115.461C117.22 33 118.084 32.1358 118.084 30.4074V20.5926C118.084 18.8642 117.22 18 115.461 18H101.623C99.8745 18 99 18.8642 99 20.5926V30.4074C99 32.1358 99.8745 33 101.623 33ZM101.644 31.5082C100.903 31.5082 100.481 31.1173 100.481 30.3354V20.6646C100.481 19.893 100.903 19.4918 101.644 19.4918H105.224V31.5082H101.644ZM115.44 19.4918C116.181 19.4918 116.603 19.893 116.603 20.6646V30.3354C116.603 31.1173 116.181 31.5082 115.44 31.5082H106.675V19.4918H115.44ZM103.671 22.4753C103.949 22.4753 104.185 22.2284 104.185 21.9609C104.185 21.6934 103.949 21.4671 103.671 21.4671H102.056C101.788 21.4671 101.551 21.6934 101.551 21.9609C101.551 22.2284 101.788 22.4753 102.056 22.4753H103.671ZM103.671 24.5329C103.949 24.5329 104.185 24.2963 104.185 24.0185C104.185 23.751 103.949 23.5247 103.671 23.5247H102.056C101.788 23.5247 101.551 23.751 101.551 24.0185C101.551 24.2963 101.788 24.5329 102.056 24.5329H103.671ZM103.671 26.5905C103.949 26.5905 104.185 26.3539 104.185 26.0864C104.185 25.8189 103.949 25.5926 103.671 25.5926H102.056C101.788 25.5926 101.551 25.8189 101.551 26.0864C101.551 26.3539 101.788 26.5905 102.056 26.5905H103.671Z" fill="#737373"/>
<path d="M153.5 19.5L147 26L153.5 32.5" stroke="#737373" stroke-width="1.5" stroke-linecap="round" stroke-linejoin="round"/>
<path opacity="0.3" d="M181 32.5L187.5 26L181 19.5" stroke="#BFBFBF" stroke-width="1.5" stroke-linecap="round" stroke-linejoin="round"/>
<path d="M31.5 26C31.5 29.0376 29.0376 31.5 26 31.5C22.9624 31.5 20.5 29.0376 20.5 26C20.5 22.9624 22.9624 20.5 26 20.5C29.0376 20.5 31.5 22.9624 31.5 26Z" fill="#FF5F57" stroke="#E14640"/>
<path d="M51.5 26C51.5 29.0376 49.0376 31.5 46 31.5C42.9624 31.5 40.5 29.0376 40.5 26C40.5 22.9624 42.9624 20.5 46 20.5C49.0376 20.5 51.5 22.9624 51.5 26Z" fill="#FFBD2E" stroke="#DFA123"/>
<path d="M71.5 26C71.5 29.0376 69.0376 31.5 66 31.5C62.9624 31.5 60.5 29.0376 60.5 26C60.5 22.9624 62.9624 20.5 66 20.5C69.0376 20.5 71.5 22.9624 71.5 26Z" fill="#28CA42" stroke="#1DAD2C"/>
<defs>
<filter id="filter0_bii_5_3374" x="-67.957" y="-67.957" width="935.914" height="187.914" filterUnits="userSpaceOnUse" color-interpolation-filters="sRGB">
<feFlood flood-opacity="0" result="BackgroundImageFix"/>
<feGaussianBlur in="BackgroundImageFix" stdDeviation="33.9785"/>
<feComposite in2="SourceAlpha" operator="in" result="effect1_backgroundBlur_5_3374"/>
<feBlend mode="normal" in="SourceGraphic" in2="effect1_backgroundBlur_5_3374" result="shape"/>
<feColorMatrix in="SourceAlpha" type="matrix" values="0 0 0 0 0 0 0 0 0 0 0 0 0 0 0 0 0 0 127 0" result="hardAlpha"/>
<feOffset dy="1"/>
<feComposite in2="hardAlpha" operator="arithmetic" k2="-1" k3="1"/>
<feColorMatrix type="matrix" values="0 0 0 0 1 0 0 0 0 1 0 0 0 0 1 0 0 0 0.2 0"/>
<feBlend mode="normal" in2="shape" result="effect2_innerShadow_5_3374"/>
<feColorMatrix in="SourceAlpha" type="matrix" values="0 0 0 0 0 0 0 0 0 0 0 0 0 0 0 0 0 0 127 0" result="hardAlpha"/>
<feOffset dy="-1"/>
<feComposite in2="hardAlpha" operator="arithmetic" k2="-1" k3="1"/>
<feColorMatrix type="matrix" values="0 0 0 0 0 0 0 0 0 0 0 0 0 0 0 0 0 0 0.1 0"/>
<feBlend mode="normal" in2="effect2_innerShadow_5_3374" result="effect3_innerShadow_5_3374"/>
</filter>
</defs>
</svg>
