<?xml version="1.0" encoding="UTF-8"?>
<svg version="1.1" xmlns="http://www.w3.org/2000/svg" width="520" height="97">
<path d="M0 0 C1.09042603 -0.01305176 1.09042603 -0.01305176 2.20288086 -0.02636719 C6.37162933 0.01666264 9.30318268 0.32433627 12.9375 2.5625 C14.6390625 3.42875 14.6390625 3.42875 16.375 4.3125 C19.20194551 2.72527753 19.20194551 2.72527753 21.05859375 1.359375 C24.44518854 -0.17116025 27.78493148 -0.16270881 31.4375 -0.1875 C32.46520508 -0.21408691 32.46520508 -0.21408691 33.51367188 -0.24121094 C38.59281941 -0.18477596 41.4575441 1.16351259 45.375 4.3125 C50.24707518 9.71128601 50.51721161 13.87617849 50.47265625 20.91796875 C50.4712413 21.75717361 50.46982635 22.59637848 50.46836853 23.46101379 C50.46277215 26.14071216 50.45022035 28.8203269 50.4375 31.5 C50.43248453 33.31705608 50.42792171 35.13411348 50.42382812 36.95117188 C50.41280391 41.40498013 50.39554178 45.85872589 50.375 50.3125 C46.415 50.3125 42.455 50.3125 38.375 50.3125 C38.36041748 49.33901611 38.34583496 48.36553223 38.33081055 47.36254883 C38.27266704 43.73734524 38.19543623 40.1127524 38.11254883 36.48803711 C38.07937468 34.92173199 38.05131942 33.35530949 38.02856445 31.78881836 C37.99487884 29.53188237 37.94255951 27.27601474 37.88671875 25.01953125 C37.88032883 24.32350296 37.8739389 23.62747467 37.86735535 22.91035461 C37.73769577 18.58508121 37.08780272 15.72385443 34.375 12.3125 C31.15119834 11.28362713 29.26956729 10.99819257 26.0625 12.125 C24.22402178 13.21937325 24.22402178 13.21937325 23.375 15.3125 C23.21839117 17.93630313 23.1167092 20.53774852 23.05859375 23.1640625 C23.03781265 23.93809418 23.01703156 24.71212585 22.99562073 25.50961304 C22.93016552 27.98548392 22.87125913 30.46146202 22.8125 32.9375 C22.76931093 34.61459448 22.72569652 36.29167807 22.68164062 37.96875 C22.57448829 42.08322308 22.47320955 46.19780414 22.375 50.3125 C18.085 50.3125 13.795 50.3125 9.375 50.3125 C9.36041748 49.26795654 9.34583496 48.22341309 9.33081055 47.1472168 C9.27284449 43.27235655 9.19561226 39.39807849 9.11254883 35.52368164 C9.07929137 33.84669441 9.05126192 32.16959503 9.02856445 30.49243164 C8.99503263 28.08170775 8.94272022 25.67201238 8.88671875 23.26171875 C8.88032883 22.51162033 8.8739389 21.76152191 8.86735535 20.98869324 C8.77235382 16.92484345 8.77235382 16.92484345 6.99145508 13.37036133 C4.71022461 11.87744914 3.10697597 11.44259409 0.375 11.3125 C-3.33761227 13.06363525 -3.33761227 13.06363525 -5.625 16.3125 C-5.78144172 18.86356029 -5.88321389 21.39168663 -5.94140625 23.9453125 C-5.96218735 24.69714813 -5.98296844 25.44898376 -6.00437927 26.22360229 C-6.06982705 28.62814085 -6.12873738 31.03278967 -6.1875 33.4375 C-6.23068977 35.06641771 -6.27430421 36.69532422 -6.31835938 38.32421875 C-6.42550351 42.32019915 -6.52678433 46.31629059 -6.625 50.3125 C-10.585 50.3125 -14.545 50.3125 -18.625 50.3125 C-18.69938973 45.01061034 -18.75371511 39.70902732 -18.78979492 34.40673828 C-18.8048424 32.60460108 -18.8252853 30.80250027 -18.85131836 29.00048828 C-18.88788021 26.40387979 -18.90476681 23.80775725 -18.91796875 21.2109375 C-18.94119453 20.01058365 -18.94119453 20.01058365 -18.96488953 18.78598022 C-18.96655405 13.20065961 -18.0506036 8.91092015 -14.08984375 4.66796875 C-9.09952044 0.85183916 -6.19439482 0.06424127 0 0 Z " fill="#FFFFFF" transform="translate(34.625,21.6875)"/>
<path d="M0 0 C6.49905077 3.94684843 11.41915664 10.20846183 13.5625 17.5 C13.95561829 21.16108709 13.91288978 24.7862941 13.85546875 28.46484375 C13.85122391 29.49815323 13.84697906 30.53146271 13.84260559 31.59608459 C13.82589394 34.87682822 13.78825511 38.15694392 13.75 41.4375 C13.73494348 43.66991297 13.72125677 45.90233562 13.70898438 48.13476562 C13.67601493 53.59008346 13.62428414 59.04493549 13.5625 64.5 C9.6025 64.5 5.6425 64.5 1.5625 64.5 C1.5625 58.56 1.5625 52.62 1.5625 46.5 C-2.3975 48.48 -2.3975 48.48 -6.4375 50.5 C-13.90246817 51.7916711 -20.71203813 50.91262563 -27.28125 47.10546875 C-33.81430194 42.24118551 -37.21207706 35.47703202 -38.4375 27.5 C-38.71464777 19.22021037 -37.09018549 12.40962344 -31.3828125 6.30078125 C-22.97165133 -1.58645238 -11.1169418 -4.9166905 0 0 Z M-22.4375 14.5 C-25.29609028 19.29505466 -25.86084944 22.9625693 -25.015625 28.35546875 C-23.90194112 32.48663396 -21.55453818 35.25884647 -18.75 38.375 C-14.98968565 40.20434212 -11.51657878 40.35152486 -7.4375 39.5 C-3.74745649 37.41129613 -1.22716266 34.77032689 1 31.1875 C2.14740513 25.70545327 2.45969833 21.26116709 -0.125 16.1875 C-4.02160496 11.41613704 -4.02160496 11.41613704 -9.546875 9.08203125 C-15.38851516 8.71937909 -18.43554701 10.02162404 -22.4375 14.5 Z " fill="#FFFFFF" transform="translate(414.4375,23.5)"/>
<path d="M0 0 C4.29 0 8.58 0 13 0 C13.07458679 5.81662241 13.12880761 11.63296163 13.16479492 17.44995117 C13.17980956 19.42558649 13.20022751 21.40118889 13.22631836 23.37670898 C13.26302572 26.22908695 13.27979993 29.08102129 13.29296875 31.93359375 C13.30845261 32.80584091 13.32393646 33.67808807 13.33988953 34.57676697 C13.34229228 43.48600323 11.23547312 50.77071822 4.99609375 57.26953125 C-1.45271603 62.86018239 -8.17329431 63.71668141 -16.55859375 63.4453125 C-23.42500084 62.55681033 -28.71180122 59.72516422 -33.4375 54.6875 C-38.92893374 47.4381852 -40.05456308 39.98155971 -39 31 C-36.91178997 23.3786233 -32.24910611 16.66380389 -25.4375 12.5625 C-19.38627603 9.86272315 -11.92637347 9.87726249 -5.609375 11.68359375 C-3.6875 12.5 -3.6875 12.5 -1 14 C-0.67 9.38 -0.34 4.76 0 0 Z M-24 28 C-26.44391663 32.0377753 -26.57287482 36.38062844 -26 41 C-24.19161195 46.12376615 -21.59717808 49.10548047 -17 52 C-12.07836639 53.09369636 -8.92810085 52.56717274 -4.625 49.9375 C-1.25107654 46.16191899 0.87651833 42.94812483 1.09375 37.76171875 C0.67627044 31.55171027 -1.52813491 27.74651676 -5.6875 23.125 C-13.03872883 19.54872652 -19.0078023 22.05758286 -24 28 Z " fill="#FFFFFF" transform="translate(239,11)"/>
<path d="M0 0 C3.96 0 7.92 0 12 0 C12 4.95 12 9.9 12 15 C13.2375 14.34 14.475 13.68 15.75 13 C22.35406423 10.10748207 28.86089362 9.73672843 35.77734375 11.84765625 C43.33344769 15.19961213 47.59793146 20.39965932 50.875 27.875 C53.39616955 35.60457372 52.41851271 42.49358287 49.125 49.8125 C45.6606037 56.54882614 40.1329186 60.62236047 33 63 C16.38585834 64.20220954 16.38585834 64.20220954 10 59 C4.46165199 53.92224483 0.58032806 48.25784853 -0.26213074 40.62506104 C-0.34465083 38.01568607 -0.33791247 35.42277263 -0.29296875 32.8125 C-0.28872391 31.86938965 -0.28447906 30.9262793 -0.28010559 29.95458984 C-0.2634357 26.96942482 -0.22580575 23.98495782 -0.1875 21 C-0.17243804 18.96485356 -0.15875229 16.92969645 -0.14648438 14.89453125 C-0.11357055 9.9294223 -0.06186999 4.96482913 0 0 Z M12.5625 30.375 C11.4869304 35.39432481 11.43216064 39.39112181 13.125 44.1875 C15.77710334 48.16565501 18.31118239 51.34861067 23.14453125 52.51953125 C27.62934229 52.84806085 30.41489849 52.14525872 33.9375 49.3125 C37.84987738 45.42729191 38.87407003 42.58671758 39.3125 37.0625 C39.1352769 31.51645948 37.09213081 28.19614326 33.375 24.125 C29.64937453 21.77923582 27.57059236 21.19717037 23.25 21.4453125 C18.30045915 22.66551181 15.13238209 26.12910785 12.5625 30.375 Z " fill="#FFFFFF" transform="translate(454,11)"/>
<path d="M0 0 C6.29759673 4.58112469 9.54495784 9.94548588 11.12109375 17.54296875 C11.46964758 22.73796112 11.40630073 27.90487626 11.30859375 33.10546875 C11.29351486 34.50975122 11.27983214 35.91404941 11.26757812 37.31835938 C11.23244027 40.72673114 11.17864085 44.13490169 11.12109375 47.54296875 C6.83109375 47.54296875 2.54109375 47.54296875 -1.87890625 47.54296875 C-2.20890625 46.88296875 -2.53890625 46.22296875 -2.87890625 45.54296875 C-3.76578125 46.03796875 -4.65265625 46.53296875 -5.56640625 47.04296875 C-11.67103966 49.63619717 -18.8864005 49.58878162 -25.25 47.921875 C-31.79856536 45.04969721 -36.89003111 39.32357829 -39.81640625 32.85546875 C-42.1505348 25.38332138 -42.07739769 17.24090547 -38.81640625 10.10546875 C-35.43329806 4.2350613 -30.53539276 -0.56772548 -24.08203125 -2.98046875 C-15.67259227 -4.79953179 -7.47726786 -4.38322599 0 0 Z M-23.87890625 10.54296875 C-27.51595346 15.35959884 -28.53175649 19.08012021 -28.265625 25.109375 C-27.48971338 29.99213195 -25.40557158 33.22834028 -21.62890625 36.48046875 C-17.97499653 37.8922066 -14.70720834 38.21855147 -10.87890625 37.54296875 C-6.48496059 35.3045436 -3.84105361 33.08688896 -1.87890625 28.54296875 C-0.48972321 22.49009981 -0.70388556 17.98758598 -3.87890625 12.54296875 C-8.13546492 8.49404709 -10.93504014 7.21824899 -16.8515625 7.3359375 C-19.93575273 7.65089334 -21.53214914 8.52215013 -23.87890625 10.54296875 Z " fill="#FFFFFF" transform="translate(358.87890625,25.45703125)"/>
<path d="M0 0 C5.39561587 3.89395694 10.1234449 9.01555853 12.03515625 15.46875 C13.47330211 31.33852234 13.47330211 31.33852234 9.4296875 37.796875 C4.0987637 44.18801053 -1.75804433 48.90293175 -10.1640625 49.81640625 C-19.16577516 50.19593792 -25.9302545 48.87267945 -32.8046875 42.859375 C-39.021556 36.23210198 -40.51574447 29.29546132 -40.24609375 20.36328125 C-39.53210228 13.015119 -36.53252887 7.33899685 -30.96484375 2.46875 C-22.07180585 -4.0167804 -9.87453631 -5.16798162 0 0 Z M-22.96484375 11.46875 C-26.60189096 16.28538009 -27.61769399 20.00590146 -27.3515625 26.03515625 C-26.57565088 30.9179132 -24.49150908 34.15412153 -20.71484375 37.40625 C-17.06093403 38.81798785 -13.79314584 39.14433272 -9.96484375 38.46875 C-5.57089809 36.23032485 -2.92699111 34.01267021 -0.96484375 29.46875 C0.42433929 23.41588106 0.21017694 18.91336723 -2.96484375 13.46875 C-7.22140242 9.41982834 -10.02097764 8.14403024 -15.9375 8.26171875 C-19.02169023 8.57667459 -20.61808664 9.44793138 -22.96484375 11.46875 Z " fill="#FFFFFF" transform="translate(129.96484375,24.53125)"/>
<path d="M0 0 C3.96 0 7.92 0 12 0 C12.33 4.29 12.66 8.58 13 13 C13.7425 12.505 14.485 12.01 15.25 11.5 C21.06194164 8.59402918 28.34105025 9.16292323 34.375 11.0625 C39.40587362 14.77576386 43.0751914 18.9989777 45 25 C45.16557141 27.82379366 45.23353164 30.54328634 45.1953125 33.36328125 C45.1924826 34.15526413 45.18965271 34.94724701 45.18673706 35.76322937 C45.17558863 38.27980999 45.15049422 40.79602789 45.125 43.3125 C45.11496329 45.02408338 45.10583864 46.73567237 45.09765625 48.44726562 C45.07566681 52.63164906 45.04117408 56.81576314 45 61 C41.04 61 37.08 61 33 61 C32.970271 59.59306885 32.970271 59.59306885 32.93994141 58.15771484 C32.8615614 54.65746299 32.77485919 51.15761836 32.68261719 47.65771484 C32.64447888 46.146727 32.60960028 44.63565304 32.578125 43.12451172 C32.53214295 40.94467522 32.47420675 38.7654238 32.4140625 36.5859375 C32.3826416 35.2767334 32.3512207 33.9675293 32.31884766 32.61865234 C32.00499552 29.0566949 31.4632845 26.26055955 30 23 C27.18772378 22.06257459 25.41253156 21.86529156 22.5 21.875 C21.7265625 21.87242188 20.953125 21.86984375 20.15625 21.8671875 C17.81552983 21.91854187 17.81552983 21.91854187 15 23 C12.97484958 27.51253567 12.703592 31.68366685 12.5859375 36.5859375 C12.56657135 37.28772125 12.5472052 37.989505 12.5272522 38.71255493 C12.46792431 40.93324999 12.42126083 43.15399823 12.375 45.375 C12.33677698 46.88934434 12.29772278 48.40366794 12.2578125 49.91796875 C12.16226266 53.61178831 12.07806063 57.3057647 12 61 C8.04 61 4.08 61 0 61 C0 40.87 0 20.74 0 0 Z " fill="#FFFFFF" transform="translate(148,12)"/>
<path d="M0 0 C1.77697266 -0.02513672 1.77697266 -0.02513672 3.58984375 -0.05078125 C8.91533424 0.50632855 12.08055978 2.35238068 15.875 6.0625 C18.27977982 9.63531573 18.80713186 12.05636442 19.0625 16.3125 C14.7725 16.3125 10.4825 16.3125 6.0625 16.3125 C5.7325 14.9925 5.4025 13.6725 5.0625 12.3125 C0.82603233 11.3035966 0.82603233 11.3035966 -3.3125 12.25 C-3.84875 12.600625 -4.385 12.95125 -4.9375 13.3125 C-4.69650423 15.27883327 -4.69650423 15.27883327 -3.9375 17.3125 C-0.38639154 18.89077043 3.15441677 20.03260266 6.86328125 21.17578125 C17.00296893 24.50994107 17.00296893 24.50994107 20.0625 30.3125 C20.93318849 35.6236998 20.74775203 39.8629284 18.4375 44.75 C14.3865569 49.1207544 10.23645326 52.04764207 4.20703125 52.55078125 C-2.66680604 52.70389134 -8.40144376 52.74919755 -13.9375 48.3125 C-18.50452244 43.79126225 -19.60537827 39.62281289 -19.9375 33.3125 C-15.6475 33.3125 -11.3575 33.3125 -6.9375 33.3125 C-6.2775 35.2925 -5.6175 37.2725 -4.9375 39.3125 C-2.65044169 40.45602916 -1.34485238 40.41584439 1.1875 40.375 C3.105625 40.3440625 3.105625 40.3440625 5.0625 40.3125 C5.7225 38.9925 6.3825 37.6725 7.0625 36.3125 C3.35317945 31.84810147 -0.99606847 30.79531862 -6.36132812 29.33398438 C-11.09269474 27.92454016 -13.75538781 26.06560802 -16.9375 22.3125 C-18.93828091 18.31093818 -18.5710671 13.65183695 -17.9375 9.3125 C-15.93800636 5.51480403 -13.47344025 3.09894363 -9.6640625 1.1484375 C-6.34780516 0.13170531 -3.46687523 0.01129275 0 0 Z " fill="#FFFFFF" transform="translate(294.9375,21.6875)"/>
<path d="M0 0 C3.96 0 7.92 0 12 0 C12 16.17 12 32.34 12 49 C8.04 49 4.08 49 0 49 C0 32.83 0 16.66 0 0 Z " fill="#FFFFFF" transform="translate(435,23)"/>
<path d="M0 0 C2.1640625 0.34375 2.1640625 0.34375 4.7265625 1.90625 C6.72737452 5.29893126 6.71732798 7.47089161 6.1640625 11.34375 C4.7265625 13.78125 4.7265625 13.78125 2.1640625 15.34375 C-0.96577195 15.95248844 -3.7109035 15.99622963 -6.8359375 15.34375 C-9.4609375 13.28125 -9.4609375 13.28125 -10.8359375 10.34375 C-10.7763076 6.88521568 -10.68657206 4.46150455 -8.5546875 1.66015625 C-5.80459114 -0.44616755 -3.35263623 -0.13104767 0 0 Z " fill="#FFFFFF" transform="translate(266.8359375,57.65625)"/>
</svg>
